<mxfile host="app.diagrams.net" agent="Mozilla/5.0 (Macintosh; Intel Mac OS X 10_15_7) AppleWebKit/537.36 (KHTML, like Gecko) Chrome/139.0.0.0 Safari/537.36" version="28.0.9">
  <diagram name="페이지-1" id="_uKqYhUVSAW-e24wOVBT">
    <mxGraphModel dx="1635" dy="802" grid="1" gridSize="10" guides="1" tooltips="1" connect="1" arrows="1" fold="1" page="1" pageScale="1" pageWidth="827" pageHeight="1169" math="0" shadow="0">
      <root>
        <mxCell id="0" />
        <mxCell id="1" parent="0" />
        <mxCell id="KoG7eJsrAb1A95pmqb80-3" value="" style="edgeStyle=orthogonalEdgeStyle;rounded=0;orthogonalLoop=1;jettySize=auto;html=1;" parent="1" source="KoG7eJsrAb1A95pmqb80-1" target="KoG7eJsrAb1A95pmqb80-2" edge="1">
          <mxGeometry relative="1" as="geometry" />
        </mxCell>
        <mxCell id="KoG7eJsrAb1A95pmqb80-1" value="SecurityAutoConfiguration" style="rounded=0;whiteSpace=wrap;html=1;" parent="1" vertex="1">
          <mxGeometry x="80" y="200" width="170" height="40" as="geometry" />
        </mxCell>
        <mxCell id="KoG7eJsrAb1A95pmqb80-5" value="" style="edgeStyle=orthogonalEdgeStyle;rounded=0;orthogonalLoop=1;jettySize=auto;html=1;" parent="1" source="KoG7eJsrAb1A95pmqb80-2" target="KoG7eJsrAb1A95pmqb80-4" edge="1">
          <mxGeometry relative="1" as="geometry" />
        </mxCell>
        <mxCell id="KoG7eJsrAb1A95pmqb80-2" value="SpringBootWebSecurityConfiguration" style="whiteSpace=wrap;html=1;rounded=0;" parent="1" vertex="1">
          <mxGeometry x="320" y="200" width="215" height="40" as="geometry" />
        </mxCell>
        <mxCell id="KoG7eJsrAb1A95pmqb80-4" value="1) http.formLogin&lt;br&gt;&amp;nbsp;-&amp;gt; filter 적용&lt;br&gt;&lt;br&gt;2) http.build&lt;br&gt;&amp;nbsp; this.beforInit();&lt;br&gt;&amp;nbsp; this.init();&lt;br&gt;&amp;nbsp; this.beforeConfigure(); -&amp;gt; providerManager 세팅&lt;br&gt;&amp;nbsp; this.configure();&lt;br&gt;&amp;nbsp; ...&lt;div&gt;&lt;br&gt;&lt;/div&gt;" style="whiteSpace=wrap;html=1;rounded=0;align=left;" parent="1" vertex="1">
          <mxGeometry x="286.5" y="320" width="282" height="160" as="geometry" />
        </mxCell>
        <mxCell id="KoG7eJsrAb1A95pmqb80-8" value="" style="edgeStyle=orthogonalEdgeStyle;rounded=0;orthogonalLoop=1;jettySize=auto;html=1;" parent="1" source="KoG7eJsrAb1A95pmqb80-6" edge="1">
          <mxGeometry relative="1" as="geometry">
            <mxPoint x="725" y="270" as="targetPoint" />
          </mxGeometry>
        </mxCell>
        <mxCell id="KoG7eJsrAb1A95pmqb80-6" value="AuthenticationConfiguration" style="rounded=0;whiteSpace=wrap;html=1;" parent="1" vertex="1">
          <mxGeometry x="640" y="200" width="170" height="40" as="geometry" />
        </mxCell>
        <mxCell id="KoG7eJsrAb1A95pmqb80-11" value="" style="edgeStyle=orthogonalEdgeStyle;rounded=0;orthogonalLoop=1;jettySize=auto;html=1;entryX=1.005;entryY=0.644;entryDx=0;entryDy=0;entryPerimeter=0;" parent="1" source="KoG7eJsrAb1A95pmqb80-9" target="KoG7eJsrAb1A95pmqb80-4" edge="1">
          <mxGeometry relative="1" as="geometry">
            <mxPoint x="830" y="390" as="targetPoint" />
            <Array as="points">
              <mxPoint x="830" y="423" />
            </Array>
          </mxGeometry>
        </mxCell>
        <mxCell id="KoG7eJsrAb1A95pmqb80-9" value="InitializeUserDetailsBeanManagerConfigurer&lt;br&gt;-&amp;gt; userDetailService 를 가져다가 DaoAuthenticationProvider을 만든다." style="text;html=1;align=center;verticalAlign=middle;whiteSpace=wrap;rounded=0;" parent="1" vertex="1">
          <mxGeometry x="640" y="280" width="380" height="30" as="geometry" />
        </mxCell>
        <mxCell id="KoG7eJsrAb1A95pmqb80-15" value="" style="edgeStyle=orthogonalEdgeStyle;rounded=0;orthogonalLoop=1;jettySize=auto;html=1;" parent="1" source="KoG7eJsrAb1A95pmqb80-13" target="KoG7eJsrAb1A95pmqb80-14" edge="1">
          <mxGeometry relative="1" as="geometry" />
        </mxCell>
        <mxCell id="KoG7eJsrAb1A95pmqb80-13" value="UsernamePasswordAuthenticationFilter" style="rounded=0;whiteSpace=wrap;html=1;" parent="1" vertex="1">
          <mxGeometry x="80" y="600" width="230" height="40" as="geometry" />
        </mxCell>
        <mxCell id="KoG7eJsrAb1A95pmqb80-17" value="" style="edgeStyle=orthogonalEdgeStyle;rounded=0;orthogonalLoop=1;jettySize=auto;html=1;" parent="1" source="KoG7eJsrAb1A95pmqb80-14" target="KoG7eJsrAb1A95pmqb80-16" edge="1">
          <mxGeometry relative="1" as="geometry" />
        </mxCell>
        <mxCell id="KoG7eJsrAb1A95pmqb80-14" value="AuthenticationProvider" style="rounded=0;whiteSpace=wrap;html=1;" parent="1" vertex="1">
          <mxGeometry x="390" y="600" width="170" height="40" as="geometry" />
        </mxCell>
        <mxCell id="KoG7eJsrAb1A95pmqb80-19" value="" style="edgeStyle=orthogonalEdgeStyle;rounded=0;orthogonalLoop=1;jettySize=auto;html=1;" parent="1" source="KoG7eJsrAb1A95pmqb80-16" target="KoG7eJsrAb1A95pmqb80-18" edge="1">
          <mxGeometry relative="1" as="geometry" />
        </mxCell>
        <mxCell id="KoG7eJsrAb1A95pmqb80-16" value="AbstractUserDetailsAuthenticationProvider" style="rounded=0;whiteSpace=wrap;html=1;" parent="1" vertex="1">
          <mxGeometry x="355" y="680" width="240" height="40" as="geometry" />
        </mxCell>
        <mxCell id="KoG7eJsrAb1A95pmqb80-22" value="" style="edgeStyle=orthogonalEdgeStyle;rounded=0;orthogonalLoop=1;jettySize=auto;html=1;" parent="1" source="KoG7eJsrAb1A95pmqb80-18" target="KoG7eJsrAb1A95pmqb80-21" edge="1">
          <mxGeometry relative="1" as="geometry" />
        </mxCell>
        <mxCell id="KoG7eJsrAb1A95pmqb80-18" value="DaoAuthenticationProvider" style="rounded=0;whiteSpace=wrap;html=1;" parent="1" vertex="1">
          <mxGeometry x="377.5" y="760" width="195" height="40" as="geometry" />
        </mxCell>
        <mxCell id="KoG7eJsrAb1A95pmqb80-20" value="UserDetailService" style="rounded=0;whiteSpace=wrap;html=1;" parent="1" vertex="1">
          <mxGeometry x="600" y="840" width="195" height="40" as="geometry" />
        </mxCell>
        <mxCell id="KoG7eJsrAb1A95pmqb80-23" value="" style="edgeStyle=orthogonalEdgeStyle;rounded=0;orthogonalLoop=1;jettySize=auto;html=1;" parent="1" source="KoG7eJsrAb1A95pmqb80-21" target="KoG7eJsrAb1A95pmqb80-20" edge="1">
          <mxGeometry relative="1" as="geometry" />
        </mxCell>
        <mxCell id="KoG7eJsrAb1A95pmqb80-21" value="xxxUserDetailService" style="rounded=0;whiteSpace=wrap;html=1;" parent="1" vertex="1">
          <mxGeometry x="600" y="760" width="195" height="40" as="geometry" />
        </mxCell>
        <mxCell id="KoG7eJsrAb1A95pmqb80-26" value="" style="edgeStyle=orthogonalEdgeStyle;rounded=0;orthogonalLoop=1;jettySize=auto;html=1;exitX=0;exitY=1;exitDx=0;exitDy=0;" parent="1" source="KoG7eJsrAb1A95pmqb80-21" edge="1">
          <mxGeometry relative="1" as="geometry">
            <mxPoint x="470" y="860" as="sourcePoint" />
            <mxPoint x="420" y="860" as="targetPoint" />
            <Array as="points">
              <mxPoint x="610" y="800" />
              <mxPoint x="610" y="820" />
              <mxPoint x="420" y="820" />
              <mxPoint x="420" y="860" />
            </Array>
          </mxGeometry>
        </mxCell>
        <mxCell id="KoG7eJsrAb1A95pmqb80-29" value="InitializeUserDetailsBeanManagerConfigurer&lt;br&gt;-&amp;gt; userDetailService 를 가져다가 DaoAuthenticationProvider을 만든다." style="text;html=1;align=center;verticalAlign=middle;whiteSpace=wrap;rounded=0;" parent="1" vertex="1">
          <mxGeometry x="550" y="510" width="380" height="30" as="geometry" />
        </mxCell>
        <mxCell id="KoG7eJsrAb1A95pmqb80-30" value="가져온 사용자 정보와 넘어온 데이터의 비밀번호를 비교한다." style="text;html=1;align=center;verticalAlign=middle;whiteSpace=wrap;rounded=0;" parent="1" vertex="1">
          <mxGeometry x="259" y="860" width="313.5" height="30" as="geometry" />
        </mxCell>
        <mxCell id="KoG7eJsrAb1A95pmqb80-31" value="사용자 정보를 가져오는 부분은 직접 커스텀 필요" style="text;html=1;align=center;verticalAlign=middle;whiteSpace=wrap;rounded=0;strokeColor=#FF3333;" parent="1" vertex="1">
          <mxGeometry x="810" y="760" width="255" height="30" as="geometry" />
        </mxCell>
        <mxCell id="1V_EwookAHwL95XN3xod-1" value="" style="edgeStyle=orthogonalEdgeStyle;rounded=0;orthogonalLoop=1;jettySize=auto;html=1;" parent="1" source="1V_EwookAHwL95XN3xod-2" target="1V_EwookAHwL95XN3xod-4" edge="1">
          <mxGeometry relative="1" as="geometry" />
        </mxCell>
        <mxCell id="1V_EwookAHwL95XN3xod-2" value="UsernamePasswordAuthenticationFilter" style="rounded=0;whiteSpace=wrap;html=1;" parent="1" vertex="1">
          <mxGeometry x="80" y="970" width="230" height="40" as="geometry" />
        </mxCell>
        <mxCell id="1V_EwookAHwL95XN3xod-3" value="" style="edgeStyle=orthogonalEdgeStyle;rounded=0;orthogonalLoop=1;jettySize=auto;html=1;" parent="1" source="1V_EwookAHwL95XN3xod-4" target="1V_EwookAHwL95XN3xod-6" edge="1">
          <mxGeometry relative="1" as="geometry" />
        </mxCell>
        <mxCell id="1V_EwookAHwL95XN3xod-4" value="AuthenticationProvider" style="rounded=0;whiteSpace=wrap;html=1;" parent="1" vertex="1">
          <mxGeometry x="390" y="970" width="170" height="40" as="geometry" />
        </mxCell>
        <mxCell id="1V_EwookAHwL95XN3xod-5" value="" style="edgeStyle=orthogonalEdgeStyle;rounded=0;orthogonalLoop=1;jettySize=auto;html=1;" parent="1" source="1V_EwookAHwL95XN3xod-6" target="1V_EwookAHwL95XN3xod-8" edge="1">
          <mxGeometry relative="1" as="geometry" />
        </mxCell>
        <mxCell id="1V_EwookAHwL95XN3xod-6" value="AbstractUserDetailsAuthenticationProvider" style="rounded=0;whiteSpace=wrap;html=1;" parent="1" vertex="1">
          <mxGeometry x="355" y="1050" width="240" height="40" as="geometry" />
        </mxCell>
        <mxCell id="1V_EwookAHwL95XN3xod-8" value="CustomAuthenticationProvider" style="rounded=0;whiteSpace=wrap;html=1;" parent="1" vertex="1">
          <mxGeometry x="377.5" y="1130" width="195" height="40" as="geometry" />
        </mxCell>
        <mxCell id="1V_EwookAHwL95XN3xod-15" value="인증 로직을 커스텀 가능" style="text;html=1;align=center;verticalAlign=middle;whiteSpace=wrap;rounded=0;strokeColor=#FF3333;" parent="1" vertex="1">
          <mxGeometry x="590" y="1135" width="140" height="30" as="geometry" />
        </mxCell>
        <mxCell id="1V_EwookAHwL95XN3xod-16" value="JwtAuthenticationFilter" style="rounded=0;whiteSpace=wrap;html=1;" parent="1" vertex="1">
          <mxGeometry x="80" y="1280" width="230" height="40" as="geometry" />
        </mxCell>
        <mxCell id="1V_EwookAHwL95XN3xod-17" value="해당 필터 적용으로 인해서, 요청을 가로 채고 token을 통해 인증 이후 사용자 정보를 가져와서 인가 처리" style="text;html=1;align=center;verticalAlign=middle;whiteSpace=wrap;rounded=0;strokeColor=#FF3333;" parent="1" vertex="1">
          <mxGeometry x="170" y="1330" width="500" height="30" as="geometry" />
        </mxCell>
        <mxCell id="LL_CF1VQLuUgH4qGAzld-1" value="" style="rounded=0;whiteSpace=wrap;html=1;" vertex="1" parent="1">
          <mxGeometry x="595" y="1860" width="285" height="380" as="geometry" />
        </mxCell>
        <mxCell id="LL_CF1VQLuUgH4qGAzld-2" value="백엔드" style="text;html=1;align=center;verticalAlign=middle;resizable=0;points=[];autosize=1;strokeColor=none;fillColor=none;" vertex="1" parent="1">
          <mxGeometry x="595" y="1830" width="50" height="30" as="geometry" />
        </mxCell>
        <mxCell id="LL_CF1VQLuUgH4qGAzld-17" value="" style="edgeStyle=orthogonalEdgeStyle;rounded=0;orthogonalLoop=1;jettySize=auto;html=1;" edge="1" parent="1" source="LL_CF1VQLuUgH4qGAzld-3" target="LL_CF1VQLuUgH4qGAzld-16">
          <mxGeometry relative="1" as="geometry" />
        </mxCell>
        <mxCell id="LL_CF1VQLuUgH4qGAzld-3" value="CMS" style="rounded=0;whiteSpace=wrap;html=1;" vertex="1" parent="1">
          <mxGeometry x="680" y="1990" width="120" height="60" as="geometry" />
        </mxCell>
        <mxCell id="LL_CF1VQLuUgH4qGAzld-4" value="PARTNER" style="rounded=0;whiteSpace=wrap;html=1;" vertex="1" parent="1">
          <mxGeometry x="677.5" y="1900" width="120" height="60" as="geometry" />
        </mxCell>
        <mxCell id="LL_CF1VQLuUgH4qGAzld-14" value="" style="edgeStyle=orthogonalEdgeStyle;rounded=0;orthogonalLoop=1;jettySize=auto;html=1;" edge="1" parent="1" source="LL_CF1VQLuUgH4qGAzld-5" target="LL_CF1VQLuUgH4qGAzld-3">
          <mxGeometry relative="1" as="geometry">
            <mxPoint x="920" y="2020" as="targetPoint" />
          </mxGeometry>
        </mxCell>
        <mxCell id="LL_CF1VQLuUgH4qGAzld-5" value="현업" style="shape=umlActor;verticalLabelPosition=bottom;verticalAlign=top;html=1;outlineConnect=0;" vertex="1" parent="1">
          <mxGeometry x="1000" y="1990" width="30" height="60" as="geometry" />
        </mxCell>
        <mxCell id="LL_CF1VQLuUgH4qGAzld-12" value="" style="edgeStyle=orthogonalEdgeStyle;rounded=0;orthogonalLoop=1;jettySize=auto;html=1;entryX=0.5;entryY=0;entryDx=0;entryDy=0;" edge="1" parent="1" source="LL_CF1VQLuUgH4qGAzld-10" target="LL_CF1VQLuUgH4qGAzld-4">
          <mxGeometry relative="1" as="geometry">
            <mxPoint x="737.5" y="1840" as="targetPoint" />
          </mxGeometry>
        </mxCell>
        <mxCell id="LL_CF1VQLuUgH4qGAzld-10" value="파트너" style="shape=umlActor;verticalLabelPosition=bottom;verticalAlign=top;html=1;outlineConnect=0;" vertex="1" parent="1">
          <mxGeometry x="722.5" y="1700" width="30" height="60" as="geometry" />
        </mxCell>
        <mxCell id="LL_CF1VQLuUgH4qGAzld-15" value="배치 시스템" style="rounded=0;whiteSpace=wrap;html=1;" vertex="1" parent="1">
          <mxGeometry x="640" y="2090" width="75" height="60" as="geometry" />
        </mxCell>
        <mxCell id="LL_CF1VQLuUgH4qGAzld-16" value="call 시스템" style="rounded=0;whiteSpace=wrap;html=1;" vertex="1" parent="1">
          <mxGeometry x="740" y="2090" width="120" height="60" as="geometry" />
        </mxCell>
        <mxCell id="LL_CF1VQLuUgH4qGAzld-20" value="" style="edgeStyle=orthogonalEdgeStyle;rounded=0;orthogonalLoop=1;jettySize=auto;html=1;entryX=1;entryY=0.5;entryDx=0;entryDy=0;" edge="1" parent="1" source="LL_CF1VQLuUgH4qGAzld-18" target="LL_CF1VQLuUgH4qGAzld-16">
          <mxGeometry relative="1" as="geometry">
            <mxPoint x="920" y="2120" as="targetPoint" />
          </mxGeometry>
        </mxCell>
        <mxCell id="LL_CF1VQLuUgH4qGAzld-18" value="상담사" style="shape=umlActor;verticalLabelPosition=bottom;verticalAlign=top;html=1;outlineConnect=0;" vertex="1" parent="1">
          <mxGeometry x="1000" y="2090" width="30" height="60" as="geometry" />
        </mxCell>
        <mxCell id="LL_CF1VQLuUgH4qGAzld-21" value="" style="rounded=0;whiteSpace=wrap;html=1;" vertex="1" parent="1">
          <mxGeometry x="230" y="1860" width="285" height="380" as="geometry" />
        </mxCell>
        <mxCell id="LL_CF1VQLuUgH4qGAzld-22" value="프론트" style="text;html=1;align=center;verticalAlign=middle;resizable=0;points=[];autosize=1;strokeColor=none;fillColor=none;" vertex="1" parent="1">
          <mxGeometry x="230" y="1830" width="50" height="30" as="geometry" />
        </mxCell>
        <mxCell id="LL_CF1VQLuUgH4qGAzld-25" value="web &amp;amp; app" style="rounded=0;whiteSpace=wrap;html=1;" vertex="1" parent="1">
          <mxGeometry x="312.5" y="1900" width="120" height="60" as="geometry" />
        </mxCell>
        <mxCell id="LL_CF1VQLuUgH4qGAzld-31" value="" style="edgeStyle=orthogonalEdgeStyle;rounded=0;orthogonalLoop=1;jettySize=auto;html=1;" edge="1" parent="1" source="LL_CF1VQLuUgH4qGAzld-29" target="LL_CF1VQLuUgH4qGAzld-25">
          <mxGeometry relative="1" as="geometry" />
        </mxCell>
        <mxCell id="LL_CF1VQLuUgH4qGAzld-29" value="사용자" style="shape=umlActor;verticalLabelPosition=bottom;verticalAlign=top;html=1;outlineConnect=0;" vertex="1" parent="1">
          <mxGeometry x="90" y="1900" width="30" height="60" as="geometry" />
        </mxCell>
      </root>
    </mxGraphModel>
  </diagram>
</mxfile>
